<svg fill="none" xmlns="http://www.w3.org/2000/svg" viewBox="0 0 544 364"><defs/><circle cx="278" cy="180.562" r="93.5" fill="#313131"/><path d="M306.856 214c-1.144 0-2.106-.39-2.886-1.17-.78-.78-1.17-1.742-1.17-2.886v-52.806c0-1.196.39-2.158 1.17-2.886.78-.78 1.742-1.17 2.886-1.17 1.196 0 2.158.39 2.886 1.17.78.728 1.17 1.69 1.17 2.886v22.386h36.192v-22.386c0-1.196.39-2.158 1.17-2.886.78-.78 1.742-1.17 2.886-1.17 1.196 0 2.158.39 2.886 1.17.728.728 1.092 1.69 1.092 2.886v52.806c0 1.144-.364 2.106-1.092 2.886-.728.78-1.69 1.17-2.886 1.17-1.144 0-2.106-.39-2.886-1.17-.78-.78-1.17-1.742-1.17-2.886V186.7h-36.192v23.244c0 1.144-.39 2.106-1.17 2.886-.728.78-1.69 1.17-2.886 1.17z" fill="#fff"/><path d="M191.057 267.505c22.794 22.794 53.708 35.599 85.943 35.599s63.149-12.805 85.943-35.599c22.793-22.793 35.599-53.708 35.599-85.943 0-32.234-12.806-63.149-35.599-85.9424C340.149 72.8261 309.235 60.0208 277 60.0208s-63.149 12.8053-85.943 35.5988c-22.793 22.7934-35.599 53.7084-35.599 85.9424 0 32.235 12.806 63.15 35.599 85.943zM.537508 181.562C42.3967 75.588 156.22.5 277 .5c120.759 0 223.9 75.0686 265.754 181.062C500.9 287.556 397.759 362.625 277 362.625c-120.78 0-234.6033-75.088-276.462492-181.063z" fill="#313131" stroke="#000"/><path d="M276.066 214.312c-4.316 0-8.164-.91-11.544-2.73-3.328-1.872-5.954-4.42-7.878-7.644-1.872-3.276-2.808-7.02-2.808-11.232 0-4.264.884-8.008 2.652-11.232 1.82-3.276 4.316-5.824 7.488-7.644 3.172-1.872 6.812-2.808 10.92-2.808 4.056 0 7.54.91 10.452 2.73 2.912 1.768 5.122 4.238 6.63 7.41 1.56 3.12 2.34 6.734 2.34 10.842 0 .988-.338 1.82-1.014 2.496-.676.624-1.534.936-2.574.936h-29.64c.572 3.588 2.21 6.526 4.914 8.814 2.756 2.236 6.11 3.354 10.062 3.354 1.612 0 3.25-.286 4.914-.858 1.716-.624 3.094-1.326 4.134-2.106.78-.572 1.612-.858 2.496-.858.936-.052 1.742.208 2.418.78.884.78 1.352 1.638 1.404 2.574.052.936-.364 1.742-1.248 2.418-1.768 1.404-3.978 2.548-6.63 3.432-2.6.884-5.096 1.326-7.488 1.326zm-1.17-36.582c-3.848 0-6.942 1.066-9.282 3.198-2.34 2.132-3.822 4.888-4.446 8.268h25.974c-.468-3.328-1.742-6.058-3.822-8.19-2.08-2.184-4.888-3.276-8.424-3.276zM210.464 212c-1.203 0-2.214-.41-3.034-1.23-.82-.82-1.23-1.831-1.23-3.034v-55.514c0-1.257.41-2.269 1.23-3.034.82-.82 1.831-1.23 3.034-1.23h16.4c4.1 0 7.735.902 10.906 2.706 3.171 1.804 5.631 4.319 7.38 7.544 1.804 3.171 2.706 6.833 2.706 10.988 0 3.991-.902 7.544-2.706 10.66-1.749 3.116-4.209 5.549-7.38 7.298-3.171 1.749-6.806 2.624-10.906 2.624h-12.136v17.958c0 1.203-.41 2.214-1.23 3.034-.765.82-1.777 1.23-3.034 1.23zm4.264-30.094h12.136c3.717 0 6.779-1.175 9.184-3.526 2.405-2.405 3.608-5.467 3.608-9.184 0-2.624-.547-4.92-1.64-6.888-1.093-2.023-2.597-3.608-4.51-4.756-1.913-1.148-4.127-1.722-6.642-1.722h-12.136v26.076z" fill="#fff"/></svg>